<?xml version="1.0" standalone="no"?>
<!DOCTYPE svg PUBLIC "-//W3C//DTD SVG 20010904//EN"
 "http://www.w3.org/TR/2001/REC-SVG-20010904/DTD/svg10.dtd">
<svg version="1.0" xmlns="http://www.w3.org/2000/svg"
 width="270.000000pt" height="270.000000pt" viewBox="0 0 270.000000 270.000000"
 preserveAspectRatio="xMidYMid meet">
<metadata>
Created by potrace 1.11, written by Peter Selinger 2001-2013
</metadata>
<g transform="translate(0.000000,270.000000) scale(0.100000,-0.100000)"
fill="#000000" stroke="none">
<path d="M1379 2573 c-210 -28 -369 -98 -513 -223 -163 -143 -237 -313 -231
-533 3 -120 21 -191 75 -305 66 -138 173 -261 317 -364 85 -61 155 -98 398
-213 87 -42 167 -83 177 -92 10 -9 18 -13 18 -9 0 10 98 -70 123 -101 68 -85
95 -231 62 -340 -17 -58 -1 -45 35 28 83 163 74 325 -25 473 -56 83 -102 128
-359 346 -93 79 -149 131 -220 204 -287 296 -325 539 -126 808 78 107 215 206
355 258 11 4 33 13 49 19 16 7 31 9 34 7 2 -3 12 -1 22 4 9 5 39 12 66 15 63
9 82 25 29 25 -22 0 -75 1 -117 3 -43 1 -119 -3 -169 -10z"/>
<path d="M1501 2383 c-18 -44 -49 -77 -94 -101 l-38 -20 28 -10 c39 -14 82
-58 100 -100 l15 -35 18 40 c19 43 66 84 115 101 l30 10 -28 1 c-34 1 -124 86
-129 122 -3 23 -4 22 -17 -8z"/>
<path d="M782 2360 c-23 -17 -45 -30 -49 -30 -3 0 -35 -23 -72 -52 -175 -137
-276 -276 -332 -458 -18 -58 -23 -99 -23 -185 -1 -136 5 -180 39 -280 103
-309 364 -494 884 -627 107 -27 227 -64 266 -82 142 -67 211 -162 203 -278 -5
-66 0 -65 37 11 36 71 43 151 19 227 -14 47 -30 71 -79 120 -64 63 -120 94
-439 244 -112 52 -204 104 -243 137 -12 10 -41 34 -64 53 -326 265 -438 639
-289 958 30 64 96 163 142 212 30 32 51 60 47 60 -2 0 -23 -14 -47 -30z"/>
<path d="M2105 1947 c-15 -34 -29 -64 -31 -65 -1 -2 -33 8 -70 23 -133 53
-327 35 -442 -41 -72 -48 -177 -157 -252 -262 l-61 -86 113 -110 c62 -61 144
-138 182 -171 236 -206 306 -285 360 -406 64 -146 53 -319 -29 -450 -39 -61
-30 -58 38 11 87 91 155 172 204 243 23 34 47 68 53 75 38 43 138 304 170 440
7 29 14 52 15 50 2 -2 6 -77 10 -168 4 -91 8 -186 10 -212 l3 -48 -36 0 -37 0
-20 -67 c-10 -38 -20 -72 -22 -78 -1 -5 -5 -20 -8 -32 -6 -19 -4 -21 17 -16
58 13 125 37 150 55 45 31 44 23 73 563 8 150 8 137 6 152 -2 18 -114 123
-131 123 -9 0 -23 -12 -32 -27 -27 -45 -59 -76 -135 -135 -142 -110 -224 -129
-304 -73 -61 44 -101 120 -101 194 0 76 25 126 68 132 70 10 140 -52 188 -170
17 -39 33 -71 36 -71 19 0 78 38 118 76 48 46 48 48 28 144 -3 14 -26 124 -51
244 -25 121 -47 221 -48 223 -2 2 -16 -25 -32 -60z"/>
<path d="M237 1683 c-3 -5 -12 -40 -21 -79 -51 -229 -38 -461 40 -665 75 -199
227 -326 504 -421 47 -15 99 -31 115 -34 17 -3 50 -10 75 -15 25 -6 63 -13 85
-15 22 -3 67 -9 100 -13 33 -5 92 -9 132 -10 40 -1 83 -4 95 -7 13 -2 39 -6
58 -9 51 -6 122 -42 144 -73 11 -14 20 -41 20 -59 1 -43 8 -42 30 5 88 183
-35 305 -389 387 -38 9 -78 20 -87 25 -10 6 -24 10 -31 10 -18 0 -137 38 -159
50 -10 6 -22 10 -28 10 -22 0 -229 105 -300 152 -68 46 -165 135 -214 197 -32
41 -94 163 -116 231 -27 81 -46 195 -45 277 0 64 -1 69 -8 56z"/>
<path d="M375 649 c57 -95 192 -237 305 -321 188 -140 366 -202 580 -202 130
-1 200 17 244 61 35 35 42 68 23 109 -15 30 -60 64 -97 71 -24 5 -136 12 -265
18 -121 5 -136 7 -235 26 -154 31 -404 135 -509 212 -29 22 -50 34 -46 26z"/>
</g>
</svg>
